<svg version="1.1" id="Layer_1" xmlns="http://www.w3.org/2000/svg" xmlns:xlink="http://www.w3.org/1999/xlink" x="0px" y="0px"
	 width="100%" style="transform: scale(2)" viewBox="0 0 963 642" enable-background="new 0 0 963 642" xml:space="preserve">
<path fill="none" opacity="1.000000" stroke="none" 
	d="
M625.000000,643.000000 
	C416.666656,643.000000 208.833328,643.000000 1.000000,643.000000 
	C1.000000,429.000000 1.000000,215.000000 1.000000,1.000000 
	C322.000000,1.000000 643.000000,1.000000 964.000000,1.000000 
	C964.000000,215.000000 964.000000,429.000000 964.000000,643.000000 
	C851.166687,643.000000 738.333313,643.000000 625.000000,643.000000 
M572.308899,593.258179 
	C579.852356,598.239929 588.090637,601.124512 597.177795,601.127563 
	C675.008789,601.153625 752.839844,601.207764 830.670715,601.100220 
	C851.949402,601.070801 871.125244,585.679382 874.905579,564.780029 
	C876.754333,554.559753 876.326965,543.920776 876.819519,533.466064 
	C876.995911,529.722900 876.847839,525.964539 876.847839,522.001526 
	C868.596436,522.001526 860.941956,522.027710 853.287720,521.995056 
	C843.396851,521.952881 838.034546,516.462769 837.812927,506.464172 
	C837.724609,502.477600 837.453247,498.470215 836.897034,494.524231 
	C835.852356,487.113281 831.940979,482.918091 826.202637,482.870270 
	C794.551575,482.606476 762.900330,482.352844 731.248596,482.220123 
	C728.836609,482.210022 726.326233,482.897430 724.021729,483.713257 
	C709.192627,488.962738 699.488953,499.807587 692.197571,513.222351 
	C688.150330,520.668396 681.932678,524.027466 673.422913,524.068604 
	C658.274536,524.141846 643.126953,524.574890 627.981445,524.954224 
	C616.746399,525.235535 609.994019,520.447998 607.050049,509.690063 
	C603.319336,496.057312 599.692505,482.396088 596.030090,468.744690 
	C593.242126,458.352478 590.468445,447.956451 587.607178,437.258545 
	C590.438843,436.409027 592.771179,435.709259 595.413025,434.916656 
	C596.013428,436.958160 596.555786,438.671295 597.021423,440.405090 
	C603.059998,462.889557 609.068970,485.381989 615.130310,507.860291 
	C616.736450,513.816467 620.996704,516.949280 626.756653,516.816467 
	C642.238525,516.459473 657.720886,516.094116 673.205200,515.887085 
	C678.541260,515.815674 682.273071,513.730591 685.049255,509.081604 
	C688.284424,503.664032 691.493713,498.047089 695.722961,493.443237 
	C706.485291,481.727722 719.003784,473.566650 736.030090,473.882355 
	C765.516541,474.429108 795.016235,474.265167 824.510498,474.380493 
	C834.479675,474.419495 841.098572,478.730347 843.766602,488.386780 
	C845.337158,494.071045 845.501953,500.182343 845.945801,506.127930 
	C846.349670,511.538635 848.200745,513.772217 853.525635,513.824158 
	C862.191223,513.908752 870.858765,513.789856 879.524414,513.874329 
	C883.129761,513.909424 885.467285,512.375061 886.969849,509.132965 
	C889.068604,504.604431 891.251892,500.110077 893.552490,495.680847 
	C920.647278,443.517578 936.946167,388.247437 942.212952,329.638397 
	C944.491028,304.287292 948.486938,279.086945 950.614868,253.726868 
	C952.812012,227.542542 954.805725,201.248947 954.843079,175.000259 
	C954.884583,145.888336 945.951660,119.101105 926.012024,97.147766 
	C910.405396,79.965065 892.446411,65.335060 869.769348,58.812954 
	C856.771851,55.074780 843.022827,53.465233 829.490356,52.177456 
	C805.215027,49.867378 780.968384,51.750095 756.711426,53.929001 
	C728.451294,56.467491 704.904968,67.695206 686.241150,89.092308 
	C682.113770,93.824173 677.974731,98.545807 673.657959,103.481461 
	C671.470825,101.936440 669.495422,100.540985 666.652039,98.532417 
	C673.467651,91.095047 679.545166,83.836342 686.277832,77.247017 
	C700.158569,63.661674 715.649109,52.314884 735.409729,49.348682 
	C753.155151,46.684975 771.050842,44.934883 788.924805,43.256142 
	C796.196228,42.573204 803.585266,43.143349 810.920837,43.143349 
	C810.399536,42.016685 809.829773,41.762264 809.239136,41.573372 
	C765.979797,27.738932 721.645203,19.051928 676.560547,14.047778 
	C643.081970,10.331846 609.470581,9.315876 575.810608,9.622791 
	C540.420898,9.945477 505.368439,13.238217 470.880737,21.567001 
	C432.644623,30.801035 396.664551,45.846539 361.651459,63.493073 
	C338.624023,75.098869 318.288574,90.152954 301.214264,109.509071 
	C286.354126,126.355156 275.064362,145.576401 264.141418,165.079575 
	C256.097290,179.442551 248.118088,193.913254 238.960724,207.565079 
	C224.217911,229.543716 203.475281,242.920242 176.925491,246.111206 
	C160.082474,248.135559 143.083115,248.885162 126.257202,251.020676 
	C81.112541,256.750336 49.435619,280.210846 34.046463,323.618805 
	C23.499863,353.367401 22.722706,384.256836 25.486893,415.363373 
	C25.723530,418.026398 26.083933,420.678467 26.473230,424.093353 
	C30.406052,416.798401 33.563755,410.194061 37.408760,404.017578 
	C41.319500,397.735504 45.907402,391.875000 50.227654,385.789246 
	C52.797756,388.389954 54.617161,390.231018 55.902321,391.531494 
	C49.920536,401.340179 43.227081,410.720123 38.174622,420.913483 
	C25.354902,446.777191 18.974825,474.680573 14.007154,502.926331 
	C9.711617,527.350342 7.983173,551.844360 13.012691,576.383972 
	C16.752796,594.632385 23.212500,611.751404 37.331348,624.592834 
	C41.938412,628.783081 48.076099,632.853577 54.001251,633.747437 
	C74.329742,636.814453 92.995323,631.637390 109.150436,618.592590 
	C139.624313,593.985718 162.591599,563.188599 179.820602,528.457031 
	C201.957031,483.832581 204.474228,436.403229 195.412949,388.063477 
	C193.281052,376.690247 189.992462,365.533813 187.132370,353.854431 
	C189.240128,353.075134 191.485901,352.244843 194.648346,351.075623 
	C216.634125,423.745178 214.522339,493.154144 172.432709,559.167419 
	C220.486282,559.167419 267.713226,559.167419 315.169495,559.167419 
	C315.169495,562.201843 315.169495,564.719604 315.169495,567.909607 
	C299.054840,567.909607 283.373596,567.909607 267.692322,567.909607 
	C278.558136,569.343201 289.393646,570.882568 300.221771,570.832336 
	C319.593353,570.742493 338.973541,569.942505 358.322601,568.918579 
	C365.472870,568.540222 365.463440,567.868774 365.109741,560.521851 
	C363.611176,529.390198 366.825867,498.642853 373.097504,468.209351 
	C380.735931,431.143463 393.438110,396.140900 417.056427,365.943237 
	C432.284058,346.473663 450.541748,330.778473 474.053375,321.957153 
	C488.411621,316.570099 501.663757,319.523438 514.989563,326.876129 
	C513.312622,329.424469 511.977692,331.453156 510.398071,333.853607 
	C495.593384,324.974915 481.149658,326.398651 466.596405,334.238129 
	C441.425446,347.797150 422.608154,367.800629 409.334473,392.617828 
	C378.578156,450.121368 368.927155,511.865997 375.290863,576.299316 
	C376.770386,591.279358 381.506409,605.629700 390.865845,617.907532 
	C397.674530,626.839233 406.158264,633.480408 417.826355,634.057861 
	C441.541382,635.231445 462.033691,627.610352 478.704865,610.459229 
	C495.303802,593.382507 506.656097,572.841858 516.903503,551.656799 
	C539.191650,505.579376 546.014038,456.585449 543.818298,405.961700 
	C543.626221,401.532654 543.102844,397.117981 542.710632,392.425903 
	C545.678101,392.046967 548.054810,391.743500 551.800842,391.265137 
	C551.919800,408.080292 552.164978,424.338593 552.123413,440.596191 
	C552.028320,477.757874 551.866211,514.919739 551.581848,552.080444 
	C551.451416,569.135437 557.920776,582.767578 572.308899,593.258179 
M900.010193,501.527130 
	C899.572693,502.424896 899.172424,503.343140 898.691711,504.217163 
	C895.299622,510.384644 893.659241,517.776550 886.378479,521.243103 
	C885.533569,521.645447 885.230103,523.826843 885.200256,525.194824 
	C885.004395,534.188049 884.928894,543.184204 884.858887,552.179810 
	C884.731323,568.564026 879.673523,582.940369 867.462097,594.281677 
	C863.967163,597.527527 860.065491,600.335388 856.233887,603.438416 
	C860.992065,614.311401 868.280396,622.729309 880.313843,624.562256 
	C897.197693,627.133911 913.464355,623.754395 924.646973,606.447937 
	C928.647217,600.257080 931.795471,593.202515 933.826904,586.110901 
	C940.106689,564.188049 940.831726,541.472656 941.776855,518.877197 
	C942.815857,494.038788 941.044312,469.289764 937.899841,444.649170 
	C936.920471,436.975189 935.484436,429.359467 934.437805,422.840271 
	C923.218384,448.493408 911.771362,474.666992 900.010193,501.527130 
z"/>
<path fill="#8E3BAD" opacity="1.000000" stroke="none" 
	d="
M572.000122,593.072754 
	C557.920776,582.767578 551.451416,569.135437 551.581848,552.080444 
	C551.866211,514.919739 552.028320,477.757874 552.123413,440.596191 
	C552.164978,424.338593 551.919800,408.080292 551.800842,391.265137 
	C548.054810,391.743500 545.678101,392.046967 542.710632,392.425903 
	C543.102844,397.117981 543.626221,401.532654 543.818298,405.961700 
	C546.014038,456.585449 539.191650,505.579376 516.903503,551.656799 
	C506.656097,572.841858 495.303802,593.382507 478.704865,610.459229 
	C462.033691,627.610352 441.541382,635.231445 417.826355,634.057861 
	C406.158264,633.480408 397.674530,626.839233 390.865845,617.907532 
	C381.506409,605.629700 376.770386,591.279358 375.290863,576.299316 
	C368.927155,511.865997 378.578156,450.121368 409.334473,392.617828 
	C422.608154,367.800629 441.425446,347.797150 466.596405,334.238129 
	C481.149658,326.398651 495.593384,324.974915 510.398071,333.853607 
	C511.977692,331.453156 513.312622,329.424469 514.989563,326.876129 
	C501.663757,319.523438 488.411621,316.570099 474.053375,321.957153 
	C450.541748,330.778473 432.284058,346.473663 417.056427,365.943237 
	C393.438110,396.140900 380.735931,431.143463 373.097504,468.209351 
	C366.825867,498.642853 363.611176,529.390198 365.109741,560.521851 
	C365.463440,567.868774 365.472870,568.540222 358.322601,568.918579 
	C338.973541,569.942505 319.593353,570.742493 300.221771,570.832336 
	C289.393646,570.882568 278.558136,569.343201 267.692322,567.909607 
	C283.373596,567.909607 299.054840,567.909607 315.169495,567.909607 
	C315.169495,564.719604 315.169495,562.201843 315.169495,559.167419 
	C267.713226,559.167419 220.486282,559.167419 172.432709,559.167419 
	C214.522339,493.154144 216.634125,423.745178 194.648346,351.075623 
	C191.485901,352.244843 189.240128,353.075134 187.132370,353.854431 
	C189.992462,365.533813 193.281052,376.690247 195.412949,388.063477 
	C204.474228,436.403229 201.957031,483.832581 179.820602,528.457031 
	C162.591599,563.188599 139.624313,593.985718 109.150436,618.592590 
	C92.995323,631.637390 74.329742,636.814453 54.001251,633.747437 
	C48.076099,632.853577 41.938412,628.783081 37.331348,624.592834 
	C23.212500,611.751404 16.752796,594.632385 13.012691,576.383972 
	C7.983173,551.844360 9.711617,527.350342 14.007154,502.926331 
	C18.974825,474.680573 25.354902,446.777191 38.174622,420.913483 
	C43.227081,410.720123 49.920536,401.340179 55.902321,391.531494 
	C54.617161,390.231018 52.797756,388.389954 50.227654,385.789246 
	C45.907402,391.875000 41.319500,397.735504 37.408760,404.017578 
	C33.563755,410.194061 30.406052,416.798401 26.473230,424.093353 
	C26.083933,420.678467 25.723530,418.026398 25.486893,415.363373 
	C22.722706,384.256836 23.499863,353.367401 34.046463,323.618805 
	C49.435619,280.210846 81.112541,256.750336 126.257202,251.020676 
	C143.083115,248.885162 160.082474,248.135559 176.925491,246.111206 
	C203.475281,242.920242 224.217911,229.543716 238.960724,207.565079 
	C248.118088,193.913254 256.097290,179.442551 264.141418,165.079575 
	C275.064362,145.576401 286.354126,126.355156 301.214264,109.509071 
	C318.288574,90.152954 338.624023,75.098869 361.651459,63.493073 
	C396.664551,45.846539 432.644623,30.801035 470.880737,21.567001 
	C505.368439,13.238217 540.420898,9.945477 575.810608,9.622791 
	C609.470581,9.315876 643.081970,10.331846 676.560547,14.047778 
	C721.645203,19.051928 765.979797,27.738932 809.239136,41.573372 
	C809.829773,41.762264 810.399536,42.016685 810.920837,43.143349 
	C803.585266,43.143349 796.196228,42.573204 788.924805,43.256142 
	C771.050842,44.934883 753.155151,46.684975 735.409729,49.348682 
	C715.649109,52.314884 700.158569,63.661674 686.277832,77.247017 
	C679.545166,83.836342 673.467651,91.095047 666.652039,98.532417 
	C669.495422,100.540985 671.470825,101.936440 673.657959,103.481461 
	C677.974731,98.545807 682.113770,93.824173 686.241150,89.092308 
	C704.904968,67.695206 728.451294,56.467491 756.711426,53.929001 
	C780.968384,51.750095 805.215027,49.867378 829.490356,52.177456 
	C843.022827,53.465233 856.771851,55.074780 869.769348,58.812954 
	C892.446411,65.335060 910.405396,79.965065 926.012024,97.147766 
	C945.951660,119.101105 954.884583,145.888336 954.843079,175.000259 
	C954.805725,201.248947 952.812012,227.542542 950.614868,253.726868 
	C948.486938,279.086945 944.491028,304.287292 942.212952,329.638397 
	C936.946167,388.247437 920.647278,443.517578 893.552490,495.680847 
	C891.251892,500.110077 889.068604,504.604431 886.969849,509.132965 
	C885.467285,512.375061 883.129761,513.909424 879.524414,513.874329 
	C870.858765,513.789856 862.191223,513.908752 853.525635,513.824158 
	C848.200745,513.772217 846.349670,511.538635 845.945801,506.127930 
	C845.501953,500.182343 845.337158,494.071045 843.766602,488.386780 
	C841.098572,478.730347 834.479675,474.419495 824.510498,474.380493 
	C795.016235,474.265167 765.516541,474.429108 736.030090,473.882355 
	C719.003784,473.566650 706.485291,481.727722 695.722961,493.443237 
	C691.493713,498.047089 688.284424,503.664032 685.049255,509.081604 
	C682.273071,513.730591 678.541260,515.815674 673.205200,515.887085 
	C657.720886,516.094116 642.238525,516.459473 626.756653,516.816467 
	C620.996704,516.949280 616.736450,513.816467 615.130310,507.860291 
	C609.068970,485.381989 603.059998,462.889557 597.021423,440.405090 
	C596.555786,438.671295 596.013428,436.958160 595.413025,434.916656 
	C592.771179,435.709259 590.438843,436.409027 587.607178,437.258545 
	C590.468445,447.956451 593.242126,458.352478 596.030090,468.744690 
	C599.692505,482.396088 603.319336,496.057312 607.050049,509.690063 
	C609.994019,520.447998 616.746399,525.235535 627.981445,524.954224 
	C643.126953,524.574890 658.274536,524.141846 673.422913,524.068604 
	C681.932678,524.027466 688.150330,520.668396 692.197571,513.222351 
	C699.488953,499.807587 709.192627,488.962738 724.021729,483.713257 
	C726.326233,482.897430 728.836609,482.210022 731.248596,482.220123 
	C762.900330,482.352844 794.551575,482.606476 826.202637,482.870270 
	C831.940979,482.918091 835.852356,487.113281 836.897034,494.524231 
	C837.453247,498.470215 837.724609,502.477600 837.812927,506.464172 
	C838.034546,516.462769 843.396851,521.952881 853.287720,521.995056 
	C860.941956,522.027710 868.596436,522.001526 876.847839,522.001526 
	C876.847839,525.964539 876.995911,529.722900 876.819519,533.466064 
	C876.326965,543.920776 876.754333,554.559753 874.905579,564.780029 
	C871.125244,585.679382 851.949402,601.070801 830.670715,601.100220 
	C752.839844,601.207764 675.008789,601.153625 597.177795,601.127563 
	C588.090637,601.124512 579.852356,598.239929 572.000122,593.072754 
M739.772217,343.714417 
	C740.460266,344.654266 741.109314,345.625824 741.842224,346.529266 
	C758.048340,366.504669 779.293823,374.176300 804.074280,369.358093 
	C829.212097,364.470398 845.863708,348.640442 851.219849,323.472351 
	C854.418213,308.443298 854.599060,292.759521 855.956421,277.354156 
	C857.928589,254.970566 859.977661,232.589066 861.514160,210.173767 
	C862.261902,199.264755 863.317627,188.084396 861.806030,177.369370 
	C857.739258,148.542343 831.384277,126.956490 802.185242,127.124962 
	C773.614441,127.289803 748.276855,149.212555 743.919189,177.823990 
	C742.316528,188.346420 741.265442,198.954224 740.030212,209.530975 
	C736.806458,237.135025 733.947510,264.786774 730.302185,292.334717 
	C727.912537,310.393555 728.724060,327.545410 739.772217,343.714417 
M323.313660,344.781128 
	C319.731567,350.532379 316.149506,356.283630 312.391602,362.317200 
	C315.063324,363.832794 317.193542,365.041168 319.501343,366.350311 
	C320.334198,365.189941 321.065735,364.307312 321.650482,363.336243 
	C336.815094,338.152344 354.040253,314.479950 373.963257,292.848236 
	C392.008575,273.255219 411.659393,255.571686 436.204193,244.346603 
	C449.847260,238.107224 464.048737,234.376801 479.325653,236.822739 
	C492.964844,239.006454 505.201721,244.570587 516.039856,252.791077 
	C525.410645,259.898651 534.019958,268.010132 543.399963,276.049896 
	C544.745239,274.962097 546.734497,273.353546 549.069885,271.465088 
	C532.659302,253.021103 514.516296,238.064163 490.886169,230.897552 
	C480.519348,227.753494 469.975830,226.947708 459.283051,228.620560 
	C435.653564,232.317337 415.876953,244.036606 397.722076,258.811310 
	C368.086243,282.929443 344.697937,312.526093 323.313660,344.781128 
M417.054840,468.508270 
	C412.027130,487.541901 408.407227,506.805420 407.873108,526.542419 
	C407.396362,544.160889 408.403259,561.596741 417.076508,577.503418 
	C419.625641,582.178528 423.304138,586.237854 426.925171,591.211426 
	C429.002838,587.827515 430.294342,585.724060 431.704102,583.427979 
	C421.951569,573.574463 418.282532,561.157410 417.081940,548.070312 
	C413.869080,513.047974 419.871216,479.364136 434.087311,447.335052 
	C443.890045,425.249268 459.044739,407.678528 481.615204,397.539520 
	C485.644409,395.729553 489.932343,394.495422 494.288422,392.927917 
	C494.069427,390.319794 493.866760,387.906036 493.646301,385.280579 
	C492.408386,385.388153 491.761230,385.370331 491.149261,385.508362 
	C477.154999,388.665009 465.179688,395.693146 454.563446,405.080902 
	C435.474487,421.960938 424.479797,443.736847 417.054840,468.508270 
M62.602764,551.752747 
	C58.314644,523.982300 62.031631,496.942413 70.818779,470.571655 
	C78.457932,447.646118 92.736328,429.526367 113.490189,417.009583 
	C121.251305,412.328796 129.793472,408.943024 138.428757,404.748566 
	C137.976868,402.878662 137.378204,400.401398 136.707428,397.625732 
	C116.365906,403.362488 99.669533,413.853699 85.843658,428.895996 
	C71.040710,445.001373 62.327015,464.168732 57.796017,485.441589 
	C52.406418,510.745453 49.834133,536.094116 56.082306,561.616333 
	C57.841526,568.802246 60.093735,575.881409 64.948265,582.071960 
	C67.226883,580.334900 69.172012,578.851990 70.236465,578.040527 
	C67.599228,569.063599 65.180984,560.832153 62.602764,551.752747 
z"/>
<path fill="#8F3CAD" opacity="1.000000" stroke="none" 
	d="
M900.167236,501.183838 
	C911.771362,474.666992 923.218384,448.493408 934.437805,422.840271 
	C935.484436,429.359467 936.920471,436.975189 937.899841,444.649170 
	C941.044312,469.289764 942.815857,494.038788 941.776855,518.877197 
	C940.831726,541.472656 940.106689,564.188049 933.826904,586.110901 
	C931.795471,593.202515 928.647217,600.257080 924.646973,606.447937 
	C913.464355,623.754395 897.197693,627.133911 880.313843,624.562256 
	C868.280396,622.729309 860.992065,614.311401 856.233887,603.438416 
	C860.065491,600.335388 863.967163,597.527527 867.462097,594.281677 
	C879.673523,582.940369 884.731323,568.564026 884.858887,552.179810 
	C884.928894,543.184204 885.004395,534.188049 885.200256,525.194824 
	C885.230103,523.826843 885.533569,521.645447 886.378479,521.243103 
	C893.659241,517.776550 895.299622,510.384644 898.691711,504.217163 
	C899.172424,503.343140 899.572693,502.424896 900.167236,501.183838 
z"/>
<path fill="#FBF8FC" opacity="1.000000" stroke="none" 
	d="
M739.560791,343.419800 
	C728.724060,327.545410 727.912537,310.393555 730.302185,292.334717 
	C733.947510,264.786774 736.806458,237.135025 740.030212,209.530975 
	C741.265442,198.954224 742.316528,188.346420 743.919189,177.823990 
	C748.276855,149.212555 773.614441,127.289803 802.185242,127.124962 
	C831.384277,126.956490 857.739258,148.542343 861.806030,177.369370 
	C863.317627,188.084396 862.261902,199.264755 861.514160,210.173767 
	C859.977661,232.589066 857.928589,254.970566 855.956421,277.354156 
	C854.599060,292.759521 854.418213,308.443298 851.219849,323.472351 
	C845.863708,348.640442 829.212097,364.470398 804.074280,369.358093 
	C779.293823,374.176300 758.048340,366.504669 741.842224,346.529266 
	C741.109314,345.625824 740.460266,344.654266 739.560791,343.419800 
M746.922119,223.725845 
	C745.897888,232.750046 744.873657,241.774231 743.284180,251.435806 
	C742.245178,261.192078 741.019470,270.932983 740.215332,280.708557 
	C739.250488,292.439301 737.251465,304.310242 738.173279,315.924194 
	C740.116516,340.407593 761.974548,360.059723 786.471375,362.086823 
	C816.658325,364.584778 838.519409,344.575409 842.879639,322.475037 
	C845.346802,309.969757 845.830994,297.058350 846.965027,284.308228 
	C848.969666,261.770203 850.947815,239.227463 852.619629,216.663177 
	C853.489868,204.917664 855.019775,192.993713 853.905762,181.375290 
	C851.504211,156.327408 829.605103,136.414368 805.490540,135.647354 
	C779.567749,134.822845 756.962891,152.292526 752.445862,177.796143 
	C749.811096,192.672195 748.840576,207.843002 746.922119,223.725845 
z"/>
<path fill="#FBF9FC" opacity="1.000000" stroke="none" 
	d="
M323.519867,344.483887 
	C344.697937,312.526093 368.086243,282.929443 397.722076,258.811310 
	C415.876953,244.036606 435.653564,232.317337 459.283051,228.620560 
	C469.975830,226.947708 480.519348,227.753494 490.886169,230.897552 
	C514.516296,238.064163 532.659302,253.021103 549.069885,271.465088 
	C546.734497,273.353546 544.745239,274.962097 543.399963,276.049896 
	C534.019958,268.010132 525.410645,259.898651 516.039856,252.791077 
	C505.201721,244.570587 492.964844,239.006454 479.325653,236.822739 
	C464.048737,234.376801 449.847260,238.107224 436.204193,244.346603 
	C411.659393,255.571686 392.008575,273.255219 373.963257,292.848236 
	C354.040253,314.479950 336.815094,338.152344 321.650482,363.336243 
	C321.065735,364.307312 320.334198,365.189941 319.501343,366.350311 
	C317.193542,365.041168 315.063324,363.832794 312.391602,362.317200 
	C316.149506,356.283630 319.731567,350.532379 323.519867,344.483887 
z"/>
<path fill="#FBF9FC" opacity="1.000000" stroke="none" 
	d="
M417.151733,468.113739 
	C424.479797,443.736847 435.474487,421.960938 454.563446,405.080902 
	C465.179688,395.693146 477.154999,388.665009 491.149261,385.508362 
	C491.761230,385.370331 492.408386,385.388153 493.646301,385.280579 
	C493.866760,387.906036 494.069427,390.319794 494.288422,392.927917 
	C489.932343,394.495422 485.644409,395.729553 481.615204,397.539520 
	C459.044739,407.678528 443.890045,425.249268 434.087311,447.335052 
	C419.871216,479.364136 413.869080,513.047974 417.081940,548.070312 
	C418.282532,561.157410 421.951569,573.574463 431.704102,583.427979 
	C430.294342,585.724060 429.002838,587.827515 426.925171,591.211426 
	C423.304138,586.237854 419.625641,582.178528 417.076508,577.503418 
	C408.403259,561.596741 407.396362,544.160889 407.873108,526.542419 
	C408.407227,506.805420 412.027130,487.541901 417.151733,468.113739 
z"/>
<path fill="#FBF8FC" opacity="1.000000" stroke="none" 
	d="
M62.682755,552.176697 
	C65.180984,560.832153 67.599228,569.063599 70.236465,578.040527 
	C69.172012,578.851990 67.226883,580.334900 64.948265,582.071960 
	C60.093735,575.881409 57.841526,568.802246 56.082306,561.616333 
	C49.834133,536.094116 52.406418,510.745453 57.796017,485.441589 
	C62.327015,464.168732 71.040710,445.001373 85.843658,428.895996 
	C99.669533,413.853699 116.365906,403.362488 136.707428,397.625732 
	C137.378204,400.401398 137.976868,402.878662 138.428757,404.748566 
	C129.793472,408.943024 121.251305,412.328796 113.490189,417.009583 
	C92.736328,429.526367 78.457932,447.646118 70.818779,470.571655 
	C62.031631,496.942413 58.314644,523.982300 62.682755,552.176697 
z"/>
<path fill="#8E3CAD" opacity="1.000000" stroke="none" 
	d="
M747.121338,222.881195 
	C748.840576,207.843002 749.811096,192.672195 752.445862,177.796143 
	C756.962891,152.292526 779.567749,134.822845 805.490540,135.647354 
	C829.605103,136.414368 851.504211,156.327408 853.905762,181.375290 
	C855.019775,192.993713 853.489868,204.917664 852.619629,216.663177 
	C850.947815,239.227463 848.969666,261.770203 846.965027,284.308228 
	C845.830994,297.058350 845.346802,309.969757 842.879639,322.475037 
	C838.519409,344.575409 816.658325,364.584778 786.471375,362.086823 
	C761.974548,360.059723 740.116516,340.407593 738.173279,315.924194 
	C737.251465,304.310242 739.250488,292.439301 740.215332,280.708557 
	C741.019470,270.932983 742.245178,261.192078 743.851074,251.367004 
	C749.691956,268.855713 764.813049,281.351776 781.561340,281.941284 
	C797.102722,282.488373 809.553101,276.348053 818.075562,263.500336 
	C827.106750,249.885834 827.371033,235.496902 819.574951,221.041626 
	C811.727173,206.490433 793.980286,198.065094 777.959045,200.756668 
	C763.922974,203.114746 754.160034,210.991440 747.121338,222.881195 
z"/>
<path fill="#BE8ED0" opacity="1.000000" stroke="none" 
	d="
M747.021729,223.303528 
	C754.160034,210.991440 763.922974,203.114746 777.959045,200.756668 
	C793.980286,198.065094 811.727173,206.490433 819.574951,221.041626 
	C827.371033,235.496902 827.106750,249.885834 818.075562,263.500336 
	C809.553101,276.348053 797.102722,282.488373 781.561340,281.941284 
	C764.813049,281.351776 749.691956,268.855713 744.133667,251.048309 
	C744.873657,241.774231 745.897888,232.750046 747.021729,223.303528 
M757.755859,222.338150 
	C753.470154,228.181274 751.592651,234.706436 751.841187,241.959793 
	C752.304077,255.467636 758.921143,265.319153 770.897217,270.571503 
	C783.633423,276.157166 796.190186,274.200745 806.502686,264.479828 
	C815.892334,255.628937 818.444275,244.234192 815.040527,231.994598 
	C811.582458,219.559433 802.855042,211.771896 790.294434,209.372650 
	C777.345215,206.899155 766.393738,211.206177 757.755859,222.338150 
z"/>
<path fill="#6B3DA5" opacity="1.000000" stroke="none" 
	d="
M757.938599,222.026520 
	C766.393738,211.206177 777.345215,206.899155 790.294434,209.372650 
	C802.855042,211.771896 811.582458,219.559433 815.040527,231.994598 
	C818.444275,244.234192 815.892334,255.628937 806.502686,264.479828 
	C796.190186,274.200745 783.633423,276.157166 770.897217,270.571503 
	C758.921143,265.319153 752.304077,255.467636 751.841187,241.959793 
	C751.592651,234.706436 753.470154,228.181274 757.938599,222.026520 
M775.026794,228.412384 
	C768.636169,233.974777 766.808533,240.774445 769.899597,247.487991 
	C772.907288,254.020309 779.711060,257.721039 786.625305,256.408264 
	C793.083740,255.182053 797.419189,251.424484 799.071350,244.983215 
	C800.658875,238.793900 799.077515,233.299957 794.166016,229.249649 
	C788.436890,224.525101 782.100525,224.237961 775.026794,228.412384 
z"/>
<path fill="#FCFBFD" opacity="1.000000" stroke="none" 
	d="
M775.333435,228.199585 
	C782.100525,224.237961 788.436890,224.525101 794.166016,229.249649 
	C799.077515,233.299957 800.658875,238.793900 799.071350,244.983215 
	C797.419189,251.424484 793.083740,255.182053 786.625305,256.408264 
	C779.711060,257.721039 772.907288,254.020309 769.899597,247.487991 
	C766.808533,240.774445 768.636169,233.974777 775.333435,228.199585 
z"/>
</svg>